#!OML:ASF H:\GeneralSubjects\Female5\Project 1\Capture day 1\Session 1\Female5.ASF
:FULLY-SPECIFIED
:DEGREES
665
root -6.59476 15.9724 1.3148 185.358 -68.8411 -175.067
lowerback 8.24049 1.84567 4.94687
upperback -9.83707 3.17066 1.72233
thorax -15.4485 0.901516 -1.46328
lowerneck -12.1239 -12.8732 -11.9703
upperneck 27.7937 -17.7525 3.16959
head 12.6018 -9.12281 0.337
rclavicle 1.94809e-014 5.1684e-014
rhumerus -45.616 13.7315 -80.4886
rradius 30.53
rwrist -6.36353
rhand -20.9283 -28.3564
rfingers 7.12502
rthumb 5.4436 -418.266
lclavicle 1.94809e-014 5.1684e-014
lhumerus -43.5102 0.740261 79.3239
lradius 31.8554
lwrist -5.11062
lhand -23.8697 35.3886
lfingers 7.12502
lthumb 2.60321 425.352
rfemur 10.3069 26.7651 39.7716
rtibia -14.1386
rfoot -30.7524 -32.0561
rtoes 17.7263
lfemur -27.6363 -36.7316 -2.39653
ltibia 2.18292
lfoot -45.2221 -8.24346
ltoes -5.48596
666
root -6.5881 15.9763 1.33014 185.504 -68.6018 -175.2
lowerback 8.35704 1.8457 5.02909
upperback -9.83202 3.18569 1.65573
thorax -15.5091 0.892949 -1.59109
lowerneck -12.1086 -12.8649 -11.9586
upperneck 27.9334 -17.7839 3.19183
head 12.659 -9.13709 0.332796
rclavicle -5.46658e-015 -2.62396e-014
rhumerus -45.7436 13.6555 -80.7319
rradius 30.7307
rwrist -6.21451
rhand -20.5188 -28.9614
rfingers 7.12502
rthumb 5.83894 -418.861
lclavicle -5.46658e-015 -2.62396e-014
lhumerus -43.5373 0.37439 79.6746
lradius 32.1432
lwrist -5.65768
lhand -25.8262 34.6041
lfingers 7.12502
lthumb 0.713585 424.583
rfemur 10.2918 26.9898 39.6783
rtibia -14.1604
rfoot -30.5407 -32.0926
rtoes 17.789
lfemur -27.5996 -37.2456 -2.18983
ltibia 1.97332
lfoot -46.0494 -7.96844
ltoes -5.29753
667
root -6.58054 15.9817 1.34526 185.801 -68.3642 -175.443
lowerback 8.46558 1.85475 5.01027
upperback -9.85131 3.19776 1.60184
thorax -15.5999 0.893466 -1.64769
lowerneck -12.1924 -12.8979 -11.9599
upperneck 28.1713 -17.8481 3.13354
head 12.7719 -9.17281 0.283737
rclavicle -5.60573e-014 -6.59965e-014
rhumerus -45.8172 13.7785 -81.0152
rradius 30.842
rwrist -6.10687
rhand -20.2829 -30.0842
rfingers 7.12502
rthumb 6.06666 -419.977
lclavicle -5.60573e-014 -6.59965e-014
lhumerus -43.6062 -0.0530067 80.1548
lradius 32.6354
lwrist -5.55224
lhand -26.829 34.3598
lfingers 7.12502
lthumb -0.254922 424.339
rfemur 10.2046 27.2319 39.5358
rtibia -14.1391
rfoot -30.6218 -32.0214
rtoes 18.2762
lfemur -27.6691 -37.5857 -2.02129
ltibia 1.84647
lfoot -46.6993 -7.78266
ltoes -5.28771
668
root -6.57767 15.9854 1.35778 186.063 -68.1683 -175.674
lowerback 8.54607 1.85643 4.96957
upperback -9.84306 3.19446 1.54618
thorax -15.6402 0.891982 -1.69011
lowerneck -12.2251 -12.9318 -11.9198
upperneck 28.2356 -17.9274 3.1613
head 12.81 -9.20042 0.268302
rclavicle -2.24627e-014 8.74653e-015
rhumerus -45.7453 13.8488 -81.2618
rradius 30.8834
rwrist -5.93007
rhand -19.9868 -31.3305
rfingers 7.12502
rthumb 6.35255 -421.215
lclavicle -2.24627e-014 8.74653e-015
lhumerus -43.5695 -0.768545 80.868
lradius 33.0259
lwrist -4.07769
lhand -24.5014 35.9235
lfingers 7.12502
lthumb 1.99311 425.894
rfemur 10.2674 27.4225 39.4647
rtibia -14.2567
rfoot -31.0532 -31.803
rtoes 19.1819
lfemur -27.671 -37.8761 -1.93437
ltibia 1.73153
lfoot -47.2023 -7.75485
ltoes -5.44465
669
root -6.57698 15.9842 1.36767 186.233 -67.9585 -175.853
lowerback 8.55545 1.86984 4.88943
upperback -9.77495 3.19875 1.51265
thorax -15.5629 0.906151 -1.68484
lowerneck -12.2478 -12.9445 -11.8094
upperneck 28.217 -17.972 3.17392
head 12.7993 -9.2069 0.249173
rclavicle -2.89232e-014 2.94201e-014
rhumerus -45.5858 13.9508 -81.5197
rradius 30.9078
rwrist -5.90138
rhand -20.0517 -30.3306
rfingers 7.12502
rthumb 6.28986 -420.217
lclavicle -2.89232e-014 2.94201e-014
lhumerus -43.5735 -1.66085 81.7425
lradius 33.5001
lwrist -2.24787
lhand -22.2215 37.6935
lfingers 7.12502
lthumb 4.19492 427.632
rfemur 10.3741 27.6102 39.4145
rtibia -14.3653
rfoot -31.2957 -31.7144
rtoes 19.3653
lfemur -27.5828 -38.1815 -1.89773
ltibia 1.63131
lfoot -47.7058 -7.85522
ltoes -5.63829
670
root -6.57174 15.9843 1.37916 186.181 -67.7569 -175.766
lowerback 8.62009 1.88609 4.89524
upperback -9.75571 3.2264 1.50376
thorax -15.5786 0.918021 -1.70639
lowerneck -12.2247 -12.9268 -11.7123
upperneck 28.2613 -17.989 3.18408
head 12.804 -9.20683 0.236779
rclavicle -1.78906e-015 6.36111e-015
rhumerus -45.5633 14.1507 -81.8478
rradius 31.0139
rwrist -6.06963
rhand -20.2622 -28.8119
rfingers 7.12502
rthumb 6.08664 -418.704
lclavicle -1.78906e-015 6.36111e-015
lhumerus -43.5261 -2.23999 82.399
lradius 33.9415
lwrist -1.30063
lhand -21.3565 38.3939
lfingers 7.12502
lthumb 5.03015 428.314
rfemur 10.3632 27.8108 39.4303
rtibia -14.3721
rfoot -31.4915 -31.5733
rtoes 19.5275
lfemur -27.5448 -38.1487 -1.84727
ltibia 1.63102
lfoot -47.9182 -7.50552
ltoes -5.74981
671
root -6.56218 15.9883 1.39135 186.016 -67.5973 -175.517
lowerback 8.77894 1.8955 4.98094
upperback -9.80244 3.26363 1.49297
thorax -15.7331 0.917996 -1.78007
lowerneck -12.0845 -12.9489 -11.8165
upperneck 28.2599 -18.0983 3.39986
head 12.8209 -9.2466 0.317557
rclavicle -8.64713e-015 -4.77083e-014
rhumerus -45.6875 14.3659 -82.2237
rradius 31.3098
rwrist -6.45482
rhand -20.3564 -28.6291
rfingers 7.12502
rthumb 5.99574 -418.524
lclavicle -8.64713e-015 -4.77083e-014
lhumerus -43.4971 -2.72107 82.9327
lradius 34.3928
lwrist -1.01254
lhand -21.3703 38.5187
lfingers 7.12502
lthumb 5.01684 428.439
rfemur 10.3488 27.9992 39.5734
rtibia -14.47
rfoot -31.4865 -31.6776
rtoes 19.4675
lfemur -27.6356 -37.8439 -1.73248
ltibia 1.70442
lfoot -47.8106 -6.85426
ltoes -5.55666
672
root -6.55363 15.9899 1.40199 185.907 -67.4407 -175.36
lowerback 8.968 1.91184 4.98206
upperback -9.81661 3.30202 1.49313
thorax -15.8716 0.931061 -1.79623
lowerneck -12.0491 -12.961 -11.7227
upperneck 28.2359 -18.1644 3.4613
head 12.8056 -9.26162 0.318522
rclavicle -1.17283e-014 -4.29375e-014
rhumerus -45.7321 14.501 -82.4887
rradius 31.5767
rwrist -6.54406
rhand -20.6009 -28.595
rfingers 7.12502
rthumb 5.75972 -418.497
lclavicle -1.17283e-014 -4.29375e-014
lhumerus -43.6606 -3.41485 83.5937
lradius 35.2143
lwrist -0.769947
lhand -21.4191 38.8503
lfingers 7.12502
lthumb 4.96973 428.772
rfemur 10.3942 28.1754 39.714
rtibia -14.6132
rfoot -31.3248 -31.975
rtoes 19.0094
lfemur -27.757 -37.6634 -1.59178
ltibia 1.77344
lfoot -47.7791 -6.90961
ltoes -5.66895
673
root -6.54788 15.989 1.4127 185.787 -67.2568 -175.2
lowerback 9.12884 1.92861 4.98023
upperback -9.78096 3.33852 1.48642
thorax -15.9297 0.947721 -1.81727
lowerneck -12.1351 -12.9988 -11.4729
upperneck 28.2139 -18.2434 3.40078
head 12.7847 -9.27575 0.243994
rclavicle 7.02704e-014 5.1684e-014
rhumerus -45.6747 14.6327 -82.7519
rradius 31.7628
rwrist -6.48012
rhand -21.0966 -28.1064
rfingers 7.12502
rthumb 5.28104 -418.021
lclavicle 7.02704e-014 5.1684e-014
lhumerus -43.7208 -3.91492 84.026
lradius 36.0111
lwrist -1.15185
lhand -23.4481 37.8093
lfingers 7.12502
lthumb 3.0104 427.768
rfemur 10.3553 28.3664 39.756
rtibia -14.6134
rfoot -31.5025 -31.9095
rtoes 19.0798
lfemur -27.7873 -37.355 -1.58215
ltibia 1.90167
lfoot -47.7009 -6.29114
ltoes -6.27174
674
root -6.54259 15.9877 1.42333 185.607 -67.0994 -174.997
lowerback 9.28002 1.92702 5.04366
upperback -9.72938 3.35802 1.46153
thorax -15.9586 0.949152 -1.89114
lowerneck -12.1079 -12.9696 -11.4969
upperneck 28.192 -18.2596 3.59098
head 12.7961 -9.26381 0.314986
rclavicle -9.50191e-014 -2.38542e-014
rhumerus -45.6898 14.8529 -83.1357
rradius 32.1119
rwrist -6.88043
rhand -21.3131 -27.7082
rfingers 7.12502
rthumb 5.07201 -417.628
lclavicle -9.50191e-014 -2.38542e-014
lhumerus -43.5058 -4.23136 84.2363
lradius 36.3585
lwrist -2.03147
lhand -30.7439 33.4186
lfingers 7.12502
lthumb -4.03581 423.36
rfemur 10.2921 28.5238 39.7898
rtibia -14.5426
rfoot -31.7318 -31.7441
rtoes 19.5049
lfemur -27.7621 -36.793 -1.70072
ltibia 2.09529
lfoot -47.262 -5.57513
ltoes -6.31094
